<svg width="37" height="36" viewBox="0 0 37 36" fill="none" xmlns="http://www.w3.org/2000/svg">
<path d="M33 4.67719C32.9911 3.75211 32.618 2.86781 31.9614 2.21602C31.3049 1.56423 30.4179 1.19749 29.4928 1.19531L7.24031 1.125C6.31614 1.12518 5.42975 1.49181 4.77547 2.14451C4.12119 2.79721 3.75242 3.68271 3.75 4.60687V27.5625C3.75 29.482 5.31656 30.9375 7.24031 30.9375H26.25L25.3359 27.8438L33 34.875V4.67719ZM23.202 23.1898C23.202 23.1898 22.5888 22.4592 22.077 21.8313C24.3087 21.2027 25.1602 19.8281 25.1602 19.8281C24.5472 20.2347 23.8903 20.5708 23.202 20.8301C22.4072 21.1601 21.5797 21.405 20.7333 21.5606C19.275 21.8286 17.7795 21.8228 16.3233 21.5437C15.4667 21.3846 14.6283 21.1397 13.8209 20.8125C13.3937 20.6489 12.9783 20.456 12.5777 20.2352C12.5264 20.2015 12.4758 20.1846 12.4245 20.1502C12.39 20.1333 12.3731 20.1164 12.3541 20.1164C12.0476 19.9463 11.8774 19.8274 11.8774 19.8274C11.8774 19.8274 12.6945 21.1697 14.8573 21.8145C14.3461 22.4599 13.7161 23.2073 13.7161 23.2073C9.95367 23.0885 8.52352 20.643 8.52352 20.643C8.52352 15.2248 10.9753 10.826 10.9753 10.826C13.4271 9.00844 15.7425 9.05977 15.7425 9.05977L15.9127 9.26367C12.8477 10.1299 11.452 11.4715 11.452 11.4715C11.452 11.4715 11.8261 11.2676 12.4561 10.9955C14.2779 10.1974 15.7256 9.99352 16.3233 9.92602C16.4187 9.90619 16.5156 9.89466 16.613 9.89156C17.7539 9.74351 18.9084 9.73218 20.052 9.85781C21.8476 10.064 23.5872 10.6118 25.177 11.4715C25.177 11.4715 23.832 10.1953 20.9372 9.33047L21.1755 9.05906C21.1755 9.05906 23.5078 9.00773 25.9434 10.8281C25.9434 10.8281 28.3952 15.2269 28.3952 20.6452C28.3952 20.6255 26.9644 23.0709 23.202 23.1898Z" fill="#CCCCCC"/>
<path d="M15.2846 15.3281C14.3143 15.3281 13.5479 16.1606 13.5479 17.1963C13.5479 18.232 14.3311 19.0645 15.2846 19.0645C16.2549 19.0645 17.0213 18.2327 17.0213 17.1963C17.0389 16.1585 16.2549 15.3281 15.2846 15.3281ZM21.4988 15.3281C20.5285 15.3281 19.7621 16.1606 19.7621 17.1963C19.7621 18.232 20.5454 19.0645 21.4988 19.0645C22.4698 19.0645 23.2355 18.2327 23.2355 17.1963C23.2355 16.1599 22.4529 15.3281 21.4988 15.3281Z" fill="#CCCCCC"/>
</svg>
