<svg width="37" height="36" viewBox="0 0 37 36" fill="none" xmlns="http://www.w3.org/2000/svg">
<path d="M6.125 30C5.3 30 4.594 29.7065 4.007 29.1195C3.42 28.5325 3.126 27.826 3.125 27V9C3.125 8.175 3.419 7.469 4.007 6.882C4.595 6.295 5.301 6.001 6.125 6H30.125C30.95 6 31.6565 6.294 32.2445 6.882C32.8325 7.47 33.126 8.176 33.125 9V27C33.125 27.825 32.8315 28.5315 32.2445 29.1195C31.6575 29.7075 30.951 30.001 30.125 30H6.125ZM18.125 19.2375C18.25 19.2375 18.3815 19.2185 18.5195 19.1805C18.6575 19.1425 18.7885 19.0865 18.9125 19.0125L29.525 12.375C29.725 12.25 29.875 12.094 29.975 11.907C30.075 11.72 30.125 11.5135 30.125 11.2875C30.125 10.7875 29.9125 10.4125 29.4875 10.1625C29.0625 9.9125 28.625 9.925 28.175 10.2L18.125 16.5L8.075 10.2C7.625 9.925 7.1875 9.919 6.7625 10.182C6.3375 10.445 6.125 10.8135 6.125 11.2875C6.125 11.5375 6.175 11.7565 6.275 11.9445C6.375 12.1325 6.525 12.276 6.725 12.375L17.3375 19.0125C17.4625 19.0875 17.594 19.144 17.732 19.182C17.87 19.22 18.001 19.2385 18.125 19.2375Z" fill="#CCCCCC"/>
</svg>
