<svg width="37" height="36" viewBox="0 0 37 36" fill="none" xmlns="http://www.w3.org/2000/svg">
<path d="M31.945 4.6485C30.845 3.5485 29.5215 2.999 27.9745 3H9.244C7.696 3 6.3725 3.5495 5.2735 4.6485C4.1735 5.7485 3.624 7.072 3.625 8.619V27.3495C3.625 28.8975 4.1745 30.221 5.2735 31.32C6.3735 32.42 7.697 32.9695 9.244 32.9685H13.615C13.9 32.9685 14.1145 32.9585 14.2585 32.9385C14.4262 32.9054 14.5776 32.8159 14.6875 32.685C14.8305 32.535 14.902 32.3175 14.902 32.0325L14.8915 30.705C14.8855 29.859 14.8825 29.189 14.8825 28.695L14.4325 28.773C14.1475 28.825 13.787 28.848 13.351 28.842C12.8961 28.8333 12.4426 28.7877 11.995 28.7055C11.5181 28.619 11.0694 28.4183 10.687 28.1205C10.2857 27.817 9.98637 27.3984 9.829 26.9205L9.634 26.4705C9.46901 26.1159 9.26257 25.782 9.019 25.476C8.739 25.112 8.456 24.865 8.17 24.735L8.035 24.6375C7.94126 24.5696 7.85569 24.4911 7.78 24.4035C7.70771 24.3221 7.6485 24.23 7.6045 24.1305C7.5655 24.0385 7.598 23.9635 7.702 23.9055C7.806 23.8455 7.995 23.816 8.269 23.817L8.659 23.877C8.919 23.928 9.2405 24.0835 9.6235 24.3435C10.0106 24.6074 10.3339 24.9543 10.57 25.359C10.87 25.891 11.231 26.2975 11.653 26.5785C12.076 26.8585 12.502 26.9985 12.931 26.9985C13.36 26.9985 13.731 26.966 14.044 26.901C14.3471 26.8382 14.6417 26.7395 14.9215 26.607C15.0385 25.736 15.357 25.066 15.877 24.597C15.2026 24.5303 14.5342 24.413 13.8775 24.246C13.2366 24.0702 12.6203 23.8147 12.043 23.4855C11.4389 23.1566 10.9053 22.7122 10.4725 22.1775C10.0565 21.6575 9.715 20.975 9.448 20.13C9.182 19.284 9.049 18.308 9.049 17.202C9.049 15.629 9.5625 14.289 10.5895 13.182C10.1095 11.999 10.155 10.673 10.726 9.204C11.104 9.086 11.6635 9.1735 12.4045 9.4665C13.1455 9.7595 13.6885 10.0095 14.0335 10.2165C14.3785 10.4265 14.655 10.6025 14.863 10.7445C16.0823 10.4045 17.3427 10.2339 18.6085 10.2375C19.8965 10.2375 21.1455 10.4065 22.3555 10.7445L23.0965 10.2765C23.6665 9.9343 24.2677 9.64701 24.892 9.4185C25.581 9.1585 26.108 9.087 26.473 9.204C27.058 10.674 27.1095 12.0005 26.6275 13.1835C27.6555 14.2885 28.1695 15.6285 28.1695 17.2035C28.1695 18.3095 28.036 19.288 27.769 20.139C27.503 20.991 27.1585 21.674 26.7355 22.188C26.2939 22.7146 25.7583 23.1545 25.156 23.4855C24.526 23.8365 23.9145 24.09 23.3215 24.246C22.6648 24.4135 21.9964 24.5314 21.322 24.5985C21.997 25.1835 22.335 26.1065 22.336 27.3675V32.0325C22.336 32.2525 22.3685 32.431 22.4335 32.568C22.4638 32.6338 22.5071 32.6928 22.5607 32.7415C22.6143 32.7902 22.6771 32.8276 22.7455 32.8515C22.8885 32.9035 23.0155 32.9355 23.1265 32.9475C23.2375 32.9615 23.3965 32.968 23.6035 32.967H27.9745C29.5225 32.967 30.846 32.4175 31.945 31.3185C33.044 30.2195 33.5935 28.896 33.5935 27.348V8.619C33.5935 7.071 33.045 5.7475 31.945 4.6485Z" fill="#CCCCCC"/>
</svg>
