<svg xmlns="http://www.w3.org/2000/svg" width="37" height="36" fill="none" viewBox="0 0 37 36"><path fill="#CCC" d="M29.6528 4C30.5074 4 31.327 4.33948 31.9312 4.94377C32.5355 5.54805 32.875 6.36764 32.875 7.22222V29.7778C32.875 30.6324 32.5355 31.452 31.9312 32.0562C31.327 32.6605 30.5074 33 29.6528 33H7.09722C6.24264 33 5.42305 32.6605 4.81877 32.0562C4.21448 31.452 3.875 30.6324 3.875 29.7778V7.22222C3.875 6.36764 4.21448 5.54805 4.81877 4.94377C5.42305 4.33948 6.24264 4 7.09722 4H29.6528ZM28.8472 28.9722V20.4333C28.8472 19.0404 28.2939 17.7044 27.3089 16.7195C26.3239 15.7345 24.988 15.1811 23.595 15.1811C22.2256 15.1811 20.6306 16.0189 19.8572 17.2756V15.4872H15.3622V28.9722H19.8572V21.0294C19.8572 19.7889 20.8561 18.7739 22.0967 18.7739C22.6949 18.7739 23.2686 19.0115 23.6916 19.4345C24.1146 19.8575 24.3522 20.4312 24.3522 21.0294V28.9722H28.8472ZM10.1261 12.9578C10.844 12.9578 11.5324 12.6726 12.04 12.165C12.5476 11.6574 12.8328 10.969 12.8328 10.2511C12.8328 8.75278 11.6244 7.52833 10.1261 7.52833C9.40399 7.52833 8.71144 7.8152 8.20082 8.32582C7.6902 8.83644 7.40333 9.52899 7.40333 10.2511C7.40333 11.7494 8.62778 12.9578 10.1261 12.9578ZM12.3656 28.9722V15.4872H7.90278V28.9722H12.3656Z"/></svg>